<svg xmlns="http://www.w3.org/2000/svg" viewBox="-100 -100 200 200">
  <path d="M100 0A1 1 90 00-100 0 1 1 90 00100 0L0 0M-100 0 0 0M92-39.5H85M92 39.5H85M74.9 39.6H65.1M54.8 39.6H45.1M35 39.5H24.8M15 39.5H5.1M-5.2 39.5H-14.9M-25 39.6H-35.1M-45.1 39.5H-55M-65.1 39.5H-75M-85 39.5H-91.8M39.7-91.8H35M25-91.8H15M5.1-91.6H-5M-15-91.7H-25.1M-39.7 91.8H-35.155M-25.064 91.676H-15.049M-5.083 91.794H5.053M14.995 91.822H25.019M34.961 91.794H39.682M0-100 0-95M0-85 0-75M0-65 0-55M0-45 0-35M0-25 0-15M0-5 0 5M0 15 0 25M0 35 0 45M0 55 0 65M0 75 0 85M0 95 0 100M75-39.5H65M55-39.5H45M35-39.5H24.9M15-39.6H5.1M-5.1-39.4H-15M-25-39.4H-35M-45-39.5H-55M-65-39.4H-75M-85-39.4H-91.9M-35.063-91.619H-39.8" stroke="#ffffff" stroke-width="1" fill="none"/>
</svg>