<svg height="64" viewBox="0 0 64 64" width="64" xmlns="http://www.w3.org/2000/svg"><g fill="none" fill-rule="evenodd"><path d="m9.41613251 10.5970292c1.88775729-3.34134213 5.47239039-5.5970292 9.58386749-5.5970292 6.0751322 0 11 4.92486775 11 11 0 4.8203529-3.1005645 8.9165302-7.4161325 10.4029708.9015991-1.5958362 1.4161325-3.4393156 1.4161325-5.4029708 0-6.0751322-4.9248678-11-11-11-1.2547793 0-2.4604881.210096-3.58386749.5970292z" fill="#325aa6" transform="matrix(-1 0 0 1 39.416 0)"/><path d="m27 20v4m-2-2h4m-23 9v4m-2-2h4m11 2v4m-2-2h4" stroke="#5ea7ff" stroke-linecap="round" stroke-linejoin="round" stroke-width="2"/><path d="m30 42c20.336554 0 29 20 29 20h-58s8.66344604-20 29-20z" fill="#5ea7ff"/><path d="m43 47c15.4277306 0 22 15 22 15h-44s6.5722694-15 22-15z" fill="#325aa6"/><g stroke="#22ba8e" stroke-linecap="round" stroke-width="2"><path d="m46 48v-17" stroke-linejoin="round"/><path d="m45.988176 40.0293818h-1.994088c-1.1013044 0-1.994088-.890276-1.994088-1.995536v-5.0338458"/><path d="m49.988176 44.0293818h-1.994088c-1.1013044 0-1.994088-.890276-1.994088-1.995536v-5.0338458" transform="matrix(-1 0 0 1 95.988 0)"/></g></g></svg>